{"title":"Scarlet.Street.1945.720p.BluRay.x264-SiNNERS","uid":7039718,"size":4685401499,"categoryP":"video","categoryS":"hd___movies","magnet":"?xt=urn:btih:46bf2c4a5829062b749d500b62b9b908adcf40aa&amp;dn=Scarlet.Street.1945.720p.BluRay.x264-SiNNERS&amp;tr=udp%3A%2F%2Ftracker.openbittorrent.com%3A80&amp;tr=udp%3A%2F%2Fopen.demonii.com%3A1337&amp;tr=udp%3A%2F%2Ftracker.coppersurfer.tk%3A6969&amp;tr=udp%3A%2F%2Fexodus.desync.com%3A6969","seeders":4,"leechers":2,"uploader":"mfccorrea","files":3,"time":1329496068,"description":"Bleak.. grim... uncompromising... masterpiece... these are the words usually batted around about the film Fritz Lang considered his best American title. And the film lives up to these accolades without excuses. Endlessly rewatchable, the film finds Lang's mise en scene at its most precise, its most crystalline. The film flows like the rainwater down a polished glass... easy and languid here, pausing there to plump up and gather weight... letting go there with velocity, until Chris Cross (Robinson) eventually finds his bottom in inevitable oblivion. Banned in several states, the ending of Scarlet Street may be the grimmest of all &quot;Golden Age&quot; Hollywood films-- and most amazing that it passed the censors. Joan Bennett's Kitty, and Dan Duryea's Johnny may be the most vicious characters ever sketched onscreen in a 1940's melodrama.. and the murder at its climax may be the most shocking, despite the absence of blood and gore.\n\n   General\n      Complete name : Scarlet.Street.1945.720p.BluRay.x264-SiNNERS.mkv\n      Format : Matroska\n      File size : 4.36 GiB\n      Duration : 1h 42mn\n      Overall bit rate : 6 101 Kbps\n      Encoded date : UTC 2012-02-14 17:21:21\n      Writing application : mkvmerge v5.3.0 ('I could have danced') built on Feb  9 2012 10:38:07\n      Writing library : libebml v1.2.3 + libmatroska v1.3.0\n   Video #1\n      ID : 1\n      Format : AVC\n      Format/Info : Advanced Video Codec\n      Format profile : &lt;a class=&quot;__cf_email__&quot; href=&quot;/cdn-cgi/l/email-protection&quot; data-cfemail=&quot;1951707e7159552d3728&quot;&gt;[email&amp;#160;protected]&lt;/a&gt;&lt;script cf-hash='f9e31' type=&quot;text/javascript&quot;&gt;\n/* &lt;![CDATA[ */!function(){try{var t=&quot;currentScript&quot;in document?document.currentScript:function(){for(var t=document.getElementsByTagName(&quot;script&quot;),e=t.length;e--;)if(t[e].getAttribute(&quot;cf-hash&quot;))return t[e]}();if(t&amp;&amp;t.previousSibling){var e,r,n,i,c=t.previousSibling,a=c.getAttribute(&quot;data-cfemail&quot;);if(a){for(e=&quot;&quot;,r=parseInt(a.substr(0,2),16),n=2;a.length-n;n+=2)i=parseInt(a.substr(n,2),16)^r,e+=String.fromCharCode(i);e=document.createTextNode(e),c.parentNode.replaceChild(e,c)}}}catch(u){}}();/* ]]&gt; */&lt;/script&gt;\n      Format settings, CABAC : Yes\n      Format settings, ReFrames : 5 frames\n      Muxing mode : Container profile=&lt;a class=&quot;__cf_email__&quot; href=&quot;/cdn-cgi/l/email-protection&quot; data-cfemail=&quot;1f4a7174717068715f2b312e&quot;&gt;[email&amp;#160;protected]&lt;/a&gt;&lt;script cf-hash='f9e31' type=&quot;text/javascript&quot;&gt;\n/* &lt;![CDATA[ */!function(){try{var t=&quot;currentScript&quot;in document?document.currentScript:function(){for(var t=document.getElementsByTagName(&quot;script&quot;),e=t.length;e--;)if(t[e].getAttribute(&quot;cf-hash&quot;))return t[e]}();if(t&amp;&amp;t.previousSibling){var e,r,n,i,c=t.previousSibling,a=c.getAttribute(&quot;data-cfemail&quot;);if(a){for(e=&quot;&quot;,r=parseInt(a.substr(0,2),16),n=2;a.length-n;n+=2)i=parseInt(a.substr(n,2),16)^r,e+=String.fromCharCode(i);e=document.createTextNode(e),c.parentNode.replaceChild(e,c)}}}catch(u){}}();/* ]]&gt; */&lt;/script&gt;\n      Codec ID : V_MPEG4/ISO/AVC\n      Duration : 1h 42mn\n      Bit rate : 5 340 Kbps\n      Nominal bit rate : 5 462 Kbps\n      Width : 992 pixels\n      Height : 720 pixels\n      Display aspect ratio : 1.378\n      Frame rate : 23.976 fps\n      Resolution : 24 bits\n      Colorimetry : 4:2:0\n      Scan type : Progressive\n      Bits/(Pixel*Frame) : 0.312\n      Stream size : 3.82 GiB (87%)\n      Writing library : x264 core 120 r2164 da19765\n   Audio #2\n      ID : 2\n      Format : AC-3\n      Format/Info : Audio Coding 3\n      Codec ID : A_AC3\n      Duration : 1h 42mn\n      Bit rate mode : Constant\n      Bit rate : 640 Kbps\n      Channel(s) : 2 channels\n      Channel positions : L R\n      Sampling rate : 48.0 KHz\n      Stream size : 469 MiB (10%)\n &lt;a href=&quot;\nhttp://www.imdb.com/title/tt0038057/&quot; rel=&quot;nofollow&quot; target=&quot;_NEW&quot;&gt;\nhttp://www.imdb.com/title/tt0038057/&lt;/a&gt;\n\nAudio: English\nSubtitles: Spanish and Portuguese (srt)","torrent":{"xt":"urn:btih:46bf2c4a5829062b749d500b62b9b908adcf40aa","amp;dn":"Scarlet.Street.1945.720p.BluRay.x264-SiNNERS","amp;tr":["udp%3A%2F%2Ftracker.openbittorrent.com%3A80","udp%3A%2F%2Fopen.demonii.com%3A1337","udp%3A%2F%2Ftracker.coppersurfer.tk%3A6969","udp%3A%2F%2Fexodus.desync.com%3A6969"],"infoHash":"46bf2c4a5829062b749d500b62b9b908adcf40aa","infoHashBuffer":{"type":"Buffer","data":[70,191,44,74,88,41,6,43,116,157,80,11,98,185,185,8,173,207,64,170]},"announce":[],"urlList":[]}}